<?xml version="1.0" encoding="utf-8"?>
<!-- Generator: Adobe Illustrator 23.1.0, SVG Export Plug-In . SVG Version: 6.00 Build 0)  -->
<svg version="1.1" id="Capa_1" xmlns="http://www.w3.org/2000/svg" xmlns:xlink="http://www.w3.org/1999/xlink" x="0px" y="0px"
	 viewBox="0 0 1200 1200" enable-background="new 0 0 1200 1200" xml:space="preserve">
<g>
	<g>
		<path fill="#FFFFFF" d="M1068.056,872.859c-3.593-22.424-17.829-41.102-28.044-60.809c-11.287-21.774-22.433-39.755-28.638-68.513
			c77.183-272.068-115.203-481.747-326.112-430.776c-35.413,8.559-70.43,15.645-107.417,16.196
			c29.494-13.318,49.892-39.143,69.527-63.804c2.147-2.697,19.062-25.242,22.741-23.701c10.331,4.327,23.062,11.19,37.453,12.807
			c63.093,11.044,100.038-38.631,156.671-45.834c26.799-3.409,54.04-0.477,80.943-2.161c12.925-0.809,55.042-5.003,70.089-25.661
			c8.916-2.079,16.76-6.986,20.866-15.988c1.311-2.875-0.505-6.794-4.063-6.627c-9.689,1.552-14.072,8.247-26.688,8.508
			c-6.193,0.218-12.419-0.958-18.245-3.045c-32.028-13.44-49.101-50.729-83.097-64.552c-8.824-4.101-25.687-5.367-29.163-16.136
			c-7.271-13.826-30.364-20.163-45.353-11.19c-6.307-19.777-31.838-26.088-50.981-14.907c-3.154-1.569-6.443-2.967-12.158-4.733
			c-7.27-2.246-15.606-2.223-23.133-1.494c-9.619,0.932-18.896,3.714-27.439,8.169c-14.992-4.621-31.539-2.434-43.807,7.938
			c-0.719,0.608-3.517,2.817-3.523,3.675c-1.277-0.981-3.334-3.878-4.442-4.666c-7.752-5.509-16.85,0.18-22.061,6.318
			c-3.103,3.654-7.255,13.254-13.283,11.453c-4.914-1.46-10.996,2.45-13.086,6.561c-3.251,6.394-2.043,13.857,2.01,19.568
			c3.622,5.103,8.219,10.32,10.481,16.497c2.651,7.238,2.841,15.269,3.39,22.871c1.567,21.685,2.629,47.848,11.66,67.925
			c2.955,6.57,7.353,13.53,13.255,18.048c-2.181-1.599-41.213,49-43.321,51.28c-16.423,17.758-35.335,34.665-58.562,42.697
			c-2.743-0.085-5.487-0.196-8.231-0.322c-31.418-15.946-41.323-57.065-62.244-83.044c-10.283-12.77-22.03-25.492-36.158-34.07
			c-5.919-3.592-15.421,1.051-20.537,4.088c-13.496,8.012-24.454,20.915-31.318,34.926c-9.7,19.801,17.463,29.192,29.876,36.385
			c17.819,10.326,36.146,21.837,52.475,35.061c-82.796-16.227-165.133,27.696-223.704,85.454
			c-93.152,85.157-98.217,231.181-67.4,342.798c-16.239,59.047-92.906,130.111-34.02,171.41c13.681,8.753,29.835,11.806,45.85,9.81
			c19.284-2.404,45.825-9.416,55.661-28.149c41.62,63.562,92.285,123.628,154.589,168.489
			c43.233,64.306,100.327,104.748,165.694,58.43c14.439-10.132,28.462-23.043,47.785-29.467c16.54-5.427,32.336,0.024,47.147,7.707
			c8.448,4.381,16.7,9.128,25.148,13.51c85.563,45.898,131.281-10.203,158.83-79.906c42.856-36.102,74.388-83.774,99.021-133.781
			C984.928,951.062,1076.81,933.946,1068.056,872.859z"/>
	</g>
	<path fill="#873B2D" d="M1068.056,872.859c-3.593-22.424-17.829-41.102-28.044-60.809c-11.287-21.774-22.433-39.755-28.638-68.513
		c77.183-272.069-115.203-481.747-326.112-430.775c-35.413,8.558-70.429,15.644-107.417,16.195
		c29.495-13.317,49.892-39.142,69.528-63.804c2.147-2.697,19.063-25.241,22.742-23.701c10.331,4.328,23.062,11.19,37.453,12.807
		c63.093,11.044,100.038-38.63,156.671-45.834c26.799-3.409,54.04-0.477,80.943-2.162c12.925-0.809,55.042-5.002,70.089-25.66
		c8.916-2.079,16.76-6.987,20.866-15.988c1.311-2.875-0.505-6.794-4.063-6.627c-9.689,1.552-14.072,8.248-26.688,8.509
		c-6.193,0.218-12.419-0.958-18.245-3.045c-32.028-13.44-49.101-50.729-83.097-64.553c-8.823-4.101-25.687-5.367-29.163-16.135
		c-7.272-13.826-30.363-20.164-45.353-11.19c-6.307-19.776-31.838-26.088-50.981-14.907c-3.154-1.569-6.443-2.967-12.158-4.733
		c-7.27-2.246-15.606-2.222-23.133-1.493c-9.619,0.932-18.896,3.714-27.439,8.169c-14.992-4.621-31.539-2.434-43.807,7.938
		c-0.719,0.608-3.517,2.817-3.523,3.675c-1.278-0.981-3.334-3.878-4.442-4.666c-7.752-5.51-16.85,0.181-22.061,6.318
		c-3.103,3.653-7.255,13.254-13.283,11.452c-4.914-1.46-10.995,2.451-13.086,6.562c-3.251,6.394-2.043,13.857,2.01,19.568
		c3.622,5.103,8.218,10.32,10.481,16.497c2.651,7.238,2.842,15.269,3.39,22.871c1.566,21.685,2.629,47.848,11.66,67.925
		c2.955,6.57,7.353,13.53,13.255,18.048c-2.181-1.599-41.213,49-43.321,51.279c-16.423,17.758-35.335,34.665-58.562,42.697
		c-2.743-0.085-5.487-0.196-8.231-0.323c-31.418-15.946-41.323-57.065-62.244-83.043c-10.283-12.77-22.03-25.492-36.158-34.07
		c-5.919-3.593-15.421,1.05-20.537,4.088c-13.496,8.012-24.454,20.915-31.318,34.927c-9.7,19.8,17.463,29.192,29.876,36.385
		c17.819,10.326,36.146,21.837,52.475,35.061c-82.796-16.227-165.133,27.696-223.704,85.454
		c-93.152,85.157-98.217,231.181-67.4,342.798c-16.239,59.047-92.906,130.111-34.02,171.41c13.681,8.753,29.835,11.806,45.851,9.81
		c19.284-2.404,45.825-9.416,55.661-28.149c41.62,63.562,92.285,123.628,154.589,168.49
		c43.234,64.306,100.327,104.748,165.694,58.43c14.439-10.132,28.462-23.043,47.785-29.468c16.54-5.427,32.335,0.024,47.147,7.708
		c8.448,4.381,16.7,9.128,25.148,13.51c85.563,45.898,131.281-10.203,158.83-79.906c42.856-36.102,74.388-83.773,99.021-133.781
		C984.928,951.062,1076.81,933.946,1068.056,872.859z M631.997,736.397c-12.954,10.45-36.619,13.91-48.334-0.409
		c6.132-3.731,16.532-5.094,23.411-5.893C615.562,729.108,624.369,731.047,631.997,736.397z M953.553,546.325
		c-11.685-17.457-17.378-37.848-26.032-56.805c-8.967-19.647-19.839-38.629-34.125-54.924c-1.65-1.882-24.627-27.79-24.917-27.514
		c24.73-23.686,85.058,95.347,90.187,113.019c2.366,8.151,3.942,16.504,4.481,25.056
		C963.483,550.462,955.586,549.362,953.553,546.325z M980.436,621.197c-2.479,6.191-8.815,5.102-13.597-2.775
		c-5.417-8.921-2.652-29.589-2.243-39.704c0.236-5.812,8.948-3.312,10.069,0.747C977.866,591.058,985.227,609.219,980.436,621.197z"
		/>
	<g>
		<path fill="#B0A858" d="M489.321,314.389c1.815,2.292,5.082,9.538,8.341,9.948c5.93,0.745,23.3,4.278,30.79,3.024
			c-24.007-18.064-33.539-47.385-51.501-67.775c-9.319-11.871-20.079-22.132-31.963-31.349c2.426,1.883-21.85,37.907-24.95,36.112
			c11.511,6.662,23.041,13.364,34.177,20.64C466.762,293.188,479.938,302.538,489.321,314.389z"/>
		<path fill="#B0A858" d="M667.183,226.067c4.255-4.689,10.097-8.152,15.603-11.412c-8.509-9.303-11.777-24.411-13.646-36.201
			c-1.578-9.96,2.115-57.934,9.548-53.243c-2.136,16.498-2.796,34.171-0.693,50.714c1.377,10.774,5.523,22.354,9.057,28.148
			c1.181,2.022,2.594,3.887,3.885,5.818c5.422-3.114,10.935-6.076,16.446-9.021c17.008-9.089,34.531-16.554,52.794-22.032
			c-5.697-7.432-8.252-18.141-7.978-27.374c0.578-19.492,12.348-36.872,11.89-56.451c-0.047-2.002,2.942-3.771,3.088-1.117
			c1.169,24.255-12.538,50.221-6.453,72.214c0.349,1.26,4.167,11.3,6.16,10.798c6.041-1.628,12.151-3.063,18.368-4.227
			c9.388-1.755,18.877-2.904,28.404-3.562c2.749-0.19,5.906-10.655,6.718-12.823c2.509-6.693,4.426-13.937,3.711-21.136
			c-0.443-4.452,2.465-1.12,3.202,0.516c4.525,10.037-1.031,24.221-6.156,33.049c10.621-0.875,53.723-4.48,46.085,7.848
			c-43.919-3.995-106.409,11.129-130.461,22.289c1.764-0.203,28.179-1.333,37.72-0.418c23.572,2.262,9.764,6.832-2.277,6.832
			c-12.424,0.947-52.924,3.947-61.643,7.297c-5.397,3.117-25.574,11.578-33.856,22.717c42.953,15.35,85.286,8.032,121.535-17.175
			c34.821-17.07,67.69-22.602,87.534-23.078c32.932-0.789,96.662,0.8,107.761-14.196c-1.822-0.326-3.614-0.709-5.33-1.179
			c-43.426-13.544-58.616-63.882-114.905-78.298c-3.539-2.3-5.757-5.745-7.707-9.396c-7.734-14.487-21.905-17.314-36.128-10.33
			c-3.644,1.79-10.974,4.665-11.729-2.308c-1.993-18.399-26.038-15.451-38.592-13.383c-0.122,0.02-0.237,0.018-0.357,0.031
			c-1.318,1.396-3.081,2.339-4.903,1.987c-18.431-6.439-38.648-6.126-53.137,1.848c-4.024,2.109-5.568,2.461-9.884,0.562
			c-13.745-6.046-25.634,0.096-36.457,8.378c-6.195,4.741-11.717,2.424-16.43-2.726c-2.376-2.596-3.49-2.276-6.085,0.145
			c-4.202,5.257-8.332,13.386-15.287,14.877c-6.075,1.301-15.441,2.59-9.397,8.713c9.454,9.576,14.462,21.634,14.657,32.41
			c3.988,24.852,5.231,50.761,11.018,72.99c1.609,5.112,3.888,10.176,7.267,14.383C662.175,222.072,664.615,224.145,667.183,226.067
			z"/>
	</g>
	<path fill="#D96144" d="M1030.714,833.995c-11.768-21.033-25.285-52.587-28.514-76.171c-0.653,2.1-13.283,40.219-18.611,57.283
		c-1.416,4.537-8.658,1.642-7.837-2.594c3.468-17.908,8.307-35.477,12.47-53.225c4.242-18.088,8.078-36.352,11.692-54.598
		c7.982-40.296,11.708-81.262,7.646-122.26c-14.249-147.499-135.122-273.829-296.893-260.856
		c-64.398,15.428-132.599,34.2-197.369,18.061c-172.542-35.904-379.552,110.096-312.345,391.975
		c2.215,9.288,4.397,18.649,7.264,27.761c4.321,13.738,8.843,27.595,15.269,40.504c-2.797,15.336-24.707-24.759-26.659-31.267
		c-4.556,16.923-22.756,55.868-33.104,74.246c-4.582,8.319-9.178,16.776-11.724,25.979c-11.762,46.422,47.407,50.926,76.446,34.469
		c6.48-3.672,13.18-6.964,19.597-10.777c-2.736-4.447-3.635-10.757,1.214-14.185c3.908-2.762,10.46-2.063,13.12,2.199
		c4.674,7.491,9.491,14.891,14.458,22.191c38.094,54.834,82.793,107.83,135.274,147.565c13.632,9.973,22.721,24.125,33.535,36.677
		c47.55,55.193,83.118,58.602,147.485,6.268c2.795-1.673,5.678-3.261,8.61-4.767c-20.238-3.686-40.312-9.136-57.862-13.504
		c-2.867-0.644-5.992-2.874-6.001-6.158c4.919-14.533,86.011,24.451,192.893-12.805c3.635-1.543,18.094-9.795,17.49-1.299
		c-0.261,3.676-5.787,9.24-8.688,11.227c-12.788,8.761-26.142,16.254-38.521,19.657c-7.461,2.13-15.192,3.643-22.986,4.71
		c18.982,9.809,38.66,22.635,57.36,26.794c23.546,5.238,45.465-0.915,62.18-18.079c11.145-11.446,19.034-26.161,27.079-39.829
		c7.218-12.263,9.003-26.776,18.546-33.646c15.973-13.498,30.165-29.171,42.954-45.683c21.524-27.786,38.955-58.479,53.934-90.216
		c4.913-10.41,20.3-4.241,18.579,5.663c3.252,2.154,6.297,4.531,9.635,6.618c20.324,12.708,54.149,16.853,72.415-1.516
		C1059.799,881.247,1040.879,852.165,1030.714,833.995z M378.044,421.682c-37.943,32.268-71.889,66.021-91.739,111.056
		c-12.775,28.379-22.76,58.975-26.31,87.866c-0.254,2.332-3.51,2.534-3.368,0.021c2.451-43.456,14.644-84.546,36.107-122.367
		c18.848-33.213,44.761-66.346,80.693-81.929C376.038,415.198,379.869,419.212,378.044,421.682z M379.059,395.932
		c-25.418,7.08-44.23,23.345-61.412,42.669c-2.37,2.666-19.547,21.996-20.229,9.987c11.244-15.134,23.175-30.006,37.897-41.927
		c14.501-11.98,32.016-20.295,48.912-18.292C393.098,389.28,380.948,395.406,379.059,395.932z M404.368,794.177
		c-5.516,4.412-15.359-3.414-9.369-9.054c4.87-4.586,11.946-19.729,20.129-18.332c2.62,0.447,4.022,2.247,4.581,4.463
		C422.21,781.162,410.918,788.941,404.368,794.177z M440.271,801.381c-4.062,0.704-9.412-2.85-8.167-7.5
		c1.653-6.162,18.676-25.668,24.284-15.318C461.279,787.589,448.542,799.942,440.271,801.381z M486.532,728.213
		c-11.019,8.398-25.488,8.061-38.272,4.523c-10.002-2.768-8.414-10.878-5.254-15.523c8.103-11.907,35.505-30.088,50.153-20.951
		C506.523,706.088,494.676,722.305,486.532,728.213z M648.701,731.63c-5.06,9.667-11.82,17.627-21.646,22.867
		c-19.875,11.828-53.852,1.694-62.244-21.882c-1.706-5.494,4.262-9.658,8.964-6.695c21.603-13.797,52.27-11.135,67.029,1.721
		C643.674,724.646,651.109,727.029,648.701,731.63z M740.386,726.759c-7.552-5.591-15.55-19.919-7.927-28.459
		c8.911-9.985,26.595-1.183,35.266,4.503c9.276,6.085,34.461,26.52,10.034,32.209C765.592,737.841,746.896,731.579,740.386,726.759z
		 M792.354,777.539c-4.317,5.984-9.76,9.398-13.313,11.492c-5.414,3.192-16.336-3.946-10.041-8.911
		c6.122-4.828,12.081-20.05,21.79-17.821C798.837,764.157,795.564,773.09,792.354,777.539z M828.467,772.567
		c-0.752,6.73-4.944,13.848-10.969,17.142c-3.639,1.989-10.162,4.511-12.538,0.377c-3.44-5.986,2.895-9.514,4.856-13.57
		c2.639-5.473,2.932-12.145,10.612-12.133C825.14,764.423,829.006,767.734,828.467,772.567z M953.553,546.325
		c-11.685-17.457-17.378-37.848-26.032-56.805c-8.967-19.647-19.839-38.629-34.125-54.924c-1.65-1.882-24.627-27.79-24.917-27.514
		c24.73-23.686,85.058,95.347,90.187,113.019c2.366,8.151,3.942,16.504,4.481,25.056
		C963.483,550.462,955.586,549.362,953.553,546.325z M966.839,618.422c-5.417-8.921-2.652-29.589-2.243-39.704
		c0.236-5.812,8.948-3.312,10.069,0.747c3.201,11.593,10.561,29.754,5.771,41.732C977.957,627.388,971.621,626.299,966.839,618.422z
		"/>
</g>
</svg>
