<svg version="1.2" xmlns="http://www.w3.org/2000/svg" viewBox="0 0 1084 1107" width="1084" height="1107">
	<title>frog-svg</title>
	<style>
		.s0 { fill: #4d8a61 } 
		.s1 { fill: #f15f35 } 
		.s2 { fill: #fec14f } 
		.s3 { fill: #9cc7a9 } 
		.s4 { fill: #ffb3a4 } 
		.s5 { fill: #390f07 } 
	</style>
	<g>
		<g>
			<path class="s0" d="m766.8 1052.8c-12.2-1.2-22.1 0.1-32 0-5.8-0.1-11.6-0.3-15-6.1-2.1-3.4-4.9-1.8-7.6-1.3-19.7 3.6-39.6 5.6-59.6 4.6-26-1.2-51.9-3.2-76.3-13.5-6.4-2.7-12.8-3.6-19.8-2.2-5.9 1.1-12.1 0.7-18.1 0.8-6.6 0.1-13.2 0-20.1 2.1q15.4 5.5 30.7 11c2.7 1 5.5 1.7 8.1 2.8 3 1.2 4.7 3.3 3.9 6.7-0.6 3-3 3.7-5.6 3.8-7.5 0.1-15 0.1-22.5 0.1-8.8 0-17.6 0-27 0 0.7 4.1 3.5 4.6 5.5 5.3 7.8 2.7 15.6 5 23.4 7.5 5.1 1.7 10.2 3.2 15.1 5.3 3.4 1.4 6.5 3.8 6 7.9-0.5 4.2-3.8 5.6-7.5 6.4-8.5 1.8-17.1 1.2-25.6 0.6-58.2-3.7-114.6-16.8-170.6-32-31.6-8.7-60.4-23.5-86.3-43.6-20.7-16-33.1-38-43.1-61.5-12.5-29.1-16.6-59.4-11.4-90.9 4.2-25.8 10.4-51.1 19.9-75.3 18.3-47.2 31.6-96.1 50.8-143 4.4-10.8 7.1-22.4 10.3-33.7 6.4-22.7 15.6-44.3 22.9-66.7 15.1-46 31.1-91.8 46.8-137.6 14.5-42.1 27.8-84.6 44.6-125.9 7.6-18.9 17.9-36.4 29.6-53.1 4.1-5.8 9.2-8.3 16.1-9 19-2 34.1 4.7 46.1 19.3 5.1 6 10.2 12.2 13.1 19.5 2.5 6.4 6.6 7.3 12.5 6.4 11.3-1.7 22.7-2.1 34.1-2.4 14.7-0.4 29.2 1.3 43.7 3.3 2.8 0.4 5.5 1.3 9.3 0.3-3.9-17.1-6.5-34.4-5.9-52.1 0.2-4.2 0.1-8.5 1.5-12.7 5.2-15.6 18.3-21.1 33.1-13.6 5.1 2.5 9.7 6.1 13.7 10.2 11.9 12.2 24.3 24 34.9 37.5 13.1 17 28.3 32.1 42.6 48 7.2 8 16.5 13.5 24.7 20.4 22 18.7 43.7 37.8 64.4 57.9 12 11.6 19.1 26.5 27 40.9 2.6 4.6 5.2 9.1 8.7 13.3 6.5 8 8.4 18 9.6 27.9 3.2 25.7 4.2 51.2-5.3 76-3.3 8.7-7.9 16.8-12.5 24.8-2.4 4.1-3.4 8.4-4.1 13-3 20.2-0.2 39.6 5.7 59q11.4 37.3 23.9 74.2c5.6 16.6 14.3 31.9 22.2 47.4 7.8 15.2 16.6 30 24.3 45.2 15.5 30.3 25.4 62.6 32.9 95.7 0.5 2.5 0.4 5.5 1.8 7.2 5.5 6.7 4.7 14.6 5 22.4 0.9 26.9-1.4 53.4-9 79.3-3.9 13.4-9.5 26.1-16.5 38.2-7.1 12.1-17.8 20.2-30.1 26.4-19.5 9.8-40.4 15.6-61.5 21-26.3 6.6-53.5 7.2-80.3 10-9.7 1-19.2-1-28.7-2.2-2.5-0.3-4.9-1.3-7.1-2.4-2.6-1.3-4.8-3.3-4.5-6.7 0.3-2.7 2.3-4.3 4.8-5.2 4.4-1.4 8.9-2.6 13.2-4.1 8.7-3 17.8-5.2 27.1-12.8z"/>
			<path fill-rule="evenodd" class="s1" d="m191.9 541.2c-7.7-7-16.9-11.8-25.4-17.6-24-16.8-47.6-33.9-70.7-51.9-17.8-13.8-33.4-29.8-45.3-49.3-14.1-22.9-7.8-49.3 7.3-65 8.3-8.6 18.3-12.1 29.5-12.9 15.3-1.1 30.5-2.9 45.9-0.6 7.4 1.1 14.9 2.2 21.6 5.5 30.7 15.5 57.4 34.6 72.9 67.5 15.8 33.5 28.2 67.6 32.9 104.4 1.9 14.5 1 29.2 0.1 43.8q-2.7 1.9-5.4 3.9c-6.5 0.9-6.5 0.9-6.7 10.5q-1.2 2.3-2.3 4.5c-2.3 0.6-4.9-0.5-7 1.2q0.4 4.6 0.9 9.2c-0.2 5.8-3.4 11.2-1.8 17.2-2.8 6.1-7.1 10.4-13.7 12.6-27.7 9.1-54.5 20.6-81.5 31.7-16.2 6.6-32.9 11.4-49.9 15.3-15.7 3.8-31.7 3.9-47.4-1.1-18.1-5.7-29.6-17.6-33.7-36.4-4.5-21-0.1-39.4 14.5-55.4 12.5-13.8 27.2-23.8 45.2-29 21.8-6.4 43.7-12.7 66.8-12.2 17.9 0.4 35.3 3.7 52.9 6.3 4.1 2.9 6.8 8.6 15 6.8-5.6-3.6-8.3-9.1-14.7-9zm21.9 17.5q1.1 1.1 2.1 2.2 0.8 5.6 6.5 6.4c0.5 0.8 1 1.7 1.9 0.5 0.1-0.1-0.7-0.9-1.1-1.3-1.6-2.7-3.8-4.8-6.5-6.4q-1-1.1-2.1-2.1c-0.8-1.4-1.8-2.7-3.6-2.9-0.2 0-0.6 0.6-0.6 0.8 0.2 2.1 1.8 2.5 3.4 2.8z"/>
			<path fill-rule="evenodd" class="s1" d="m824.1 173.2q0-0.1 0-0.1 0 0 0.1 0-0.1 0-0.1 0 0 0 0 0.1zm41.6-0.2c11.6 0.1 22.7 2.3 32.9 8 5.2 2.9 10.8 5.7 12.3 12.5 0.6 2.6 3.1 3.9 5.1 5.3 13.6 9.1 11.9 30.4-3.2 39.5-9.3 5.6-19.9 7.6-30.3 9.7-24.1 4.7-47.5 0.4-70.7-5.7q-20.4-5.4-41.2-9.3c2.9-6.4-5.4-10.9-3.2-17.6 0.7-1.9-4.4-0.6-6.1-2.4-1.6-1.8-2.9-3.9-4.7-5.6-2-2.1-3.5-5.3-7.4-4.3 0.5-1.9 0-2.8-2.1-2.2 0.5-1.9 0-2.8-2.1-2.2 1.6-2.5 0.3-3.7-2.2-4.2 0.1-1.5 0.3-3-1.9-2.2 0.2-0.2 0.4-0.5 0.4-0.6-4.6-11-1.7-22-0.5-33.2 2.4-21.9 4.1-43.9 6.4-65.8 2.1-18.7 5-37.4 12.7-54.9 4.7-10.6 10.9-20 22-25.1 18-8.3 33.9-3.3 48.7 8 5.7 4.4 10.2 10 13.5 16.4 12 22.9 17.6 47.1 14.7 73-0.9 8-4.3 15-8.2 21.9-8.1 14.1-16.8 27.9-26.4 41.1 13.8 0 27.7-0.2 41.5-0.1zm-95.1 60q0 0.1 0 0.2l-0.1-0.2q0.1 0 0.1 0zm-21.4-29.9q0 0.1 0 0.1l-0.1-0.1q0.1 0 0.1 0zm-2.1-2.2q0 0.1 0 0.2l-0.1-0.1q0-0.1 0.1-0.1zm-2.1-2.2q0 0.1-0.1 0.2l-0.1-0.1q0.1 0 0.2-0.1zm-2.2-4.2q0 0.1 0 0.2l-0.1-0.2q0 0 0.1 0zm-1.9-2.2q-0.1 0.1-0.2 0.2l-0.1-0.1q0.1 0 0.3-0.1zm81.9-18.2q0.6 0.2 1.1 0.5 0.1-0.7 0.2-1.4-0.7 0.4-1.3 0.9zm-13.4 13.8q-0.2 0.1-0.2 0.2-0.1 0.1-0.1 0.1 0.1 0.1 0.2 0.1 0.1-0.2 0.1-0.4zm-4.4 2.3q-0.1 0-0.2-0.1 0 0.1 0 0.2 0.1 0 0.1 0 0.1-0.1 0.1-0.1zm-2.2 2.1q-0.1 0-0.2 0 0 0.1 0 0.2 0.1 0 0.2 0 0-0.1 0-0.2zm-4.3 4.3q0 0-0.1 0-0.2 0.1-0.3 0.3 0.2-0.1 0.5-0.1 0-0.1-0.1-0.2zm-27.4 16.4c10.8-2.3 19.3-8.6 27-16.1-10.8 2.2-19.1 8.9-27 16.1zm38.6-26.3q-0.1 0.6-0.3 1.2c0.5-0.2 1.6-0.3 0.3-1.2zm-0.6 1.5q-2.7-0.3-4.1 2c1.8 0.2 3.1-0.4 4.1-2zm-4.3 2.1c-1.1 0.3-1.9 0.8-2 2 1.4 0 2.1-0.5 2-2zm-2.2 2.2c-2.2 0.5-4.6 0.8-4.1 4.1 2.3-0.5 4.1-1.4 4.1-4.1zm11.9-10.2l-0.3 0.5 0.5 0.1z"/>
			<path class="s2" d="m246.3 584q1.1-2.2 2.3-4.5c3.7-2.5 5.8-6.1 6.7-10.5q2.7-2 5.4-4c18.3-3.7 21.2-0.4 15.5 17.8-4.2 13.3-10.7 25.6-18.2 37.3-2.4 3.6-4.9 7.1-9 8.9-5.3 2.5-10.4 0.1-11.1-5.6-0.5-3.9 0.3-7.8 0.5-11.8-1.6-6 1.6-11.4 1.8-17.2 3.5-2.6 4.6-6.6 6.1-10.4z"/>
			<path class="s2" d="m770.5 233c-0.7 2.7 1.6 4.6 2 7 0.5 2.7-0.1 5-2.2 6.6-2.6 2-5.4 1.8-7.9 0-1.8-1.2-3.4-2.7-4.7-4.3-8.2-9.3-15.8-19.2-24.6-27.9-6.4-6.3-4.4-14.4-6.9-21.4-1.2-3.4 3.4-5.8 7.5-4.7 2.7 0.8 3.6 4.5 7 4.2l-0.2-0.1c-0.3 1.9 0.1 3 2.3 2.3l-0.1-0.2c-1.5 2.6 0.3 3.5 2.2 4.4l-0.1-0.1c0.1 1.5 0.6 2.4 2.3 2.3l-0.1-0.1c-0.2 1.6 0.1 2.8 2.2 2.2l-0.1-0.1c4.9 11.7 13 21 21.5 30.1z"/>
			<path class="s3" d="m622.5 999c-31.8 1.9-60.8-8.6-86.5-29.5-6-4.8-10.5-10.6-15.4-16.2-3.2-3.7-2.5-8.1-2.3-12.3 0.6-13.7-1.2-26.9-6.9-39.5-5.9-12.9-15.4-22.4-27.7-28.6-8.4-4.2-11.8-10.1-13.2-19-1.3-9-1.3-17.7 0.6-26.5 1-4.5 3.3-5.7 7.7-4.2 9.8 3.5 19.5 6.6 29.9 8.1 13.6 1.9 27 0.8 40-3 14.8-4.3 19-15.3 11.9-29-5.9-11.4-15-19.8-24.8-27.6-12.6-9.8-25.5-19.4-38.2-29.1-8.8-6.6-9.8-10.1-4.8-19.9 17.1-33.3 43.3-55.4 80.1-63.5 35.3-7.7 67.9 0.3 97.3 20.8 18.1 12.7 32.3 29 42.9 48.3 6 11.1 5.9 12.6-2.8 21.3-17.2 17.5-34.8 34.8-49.9 54.3-1.5 1.9-3 3.9-4.1 6.2-4.9 10.7 2.4 23.1 14.5 24.4 6 0.6 12.1 0.3 18.1-0.9 15.7-3.1 30.9-7.9 45.7-14.1 8.7-3.7 9.1-3.3 11.1 6.1 0.6 2.8 1.1 5.6 1.1 8.4-0.1 25.7-1.4 51.5-8.9 76.1-8.1 26.4-20.4 51.1-43.8 67.9-20.8 15-44.1 22.9-71.6 21z"/>
			<path class="s4" d="m515.1 596.5c-31.4-1.7-56-23-56.1-56.7 0-30.3 23-55.6 56.1-55.3 33.6 0.2 56 26 55.6 55.8-0.6 33.6-24 53.8-55.6 56.2z"/>
			<path class="s4" d="m785.3 404.5c30.7 1.2 55.2 22.4 55.4 54.9 0.1 32.9-23.5 55.4-54.7 55.1-33.3-0.4-54.8-22.1-54.8-54.9 0-34 24.4-52.7 54.1-55.1z"/>
			<path fill-rule="evenodd" class="s5" d="m604.5 261.3c-0.4-8.7-2.2-17.7-4-26.7-1.4-6.7-2.1-13.4-1.4-20.2 1.4-14.8 9.5-25.1 22.7-31.3 5.7-2.7 11.8-1.9 17.7 0.1 10 3.4 18.3 9.5 25.9 16.6 9.7 9 18.5 18.8 26.6 29.3 27.8 36 60.1 67.6 94.3 97.4 18.9 16.4 36.4 34.3 52.8 53 24.3 27.8 35.5 60.6 35.9 97.2 0.2 17.7-4.7 34.5-11.7 50.6-1.7 4-3.2 8.1-5.6 11.6-12.6 19.1-11.8 40-7 60.9 11.2 49.5 28.6 96.9 51.5 142.3 15.6 30.8 32.5 61 44.9 93.4 13.9 36.4 22.1 73.6 17.9 112.9-2.3 21.7-6.7 42.9-14.5 63.4-8 20.8-21.4 36.5-41.3 47.1-28.4 15.1-58.7 23.5-90.4 27.6-19.4 2.5-39 3.9-58.6 4.2-11.9 0.3-23.6-0.7-34.7-4.9-5.2-2-11.7-3.9-12.1-10.7-0.4-7.5 6.5-9.2 11.9-11.9 2.3-1.2 5.5-1.2 7.5-4.8-6.7-1.8-13.4-2.8-18.8-7-1.8-1.4-4.1 0.1-6.2 0.3-12.4 1.5-24.7 3.6-37.1 4.2-34.2 1.8-67.5-3.2-100.3-12.8-13.8-4-13.8-4.2-23.1-2.2 2.9 3 7 3.2 10.5 4.7 3.6 1.6 7.3 3 10.3 5.5 5.9 5 4.8 11.4-2.6 13.9-3.6 1.2-7.6 1.6-11.5 2.1-3.9 0.4-7.8 0.5-11.9 0.7 0 3.5 3 3.3 4.9 4.4 4.4 2.4 8.9 4.6 12.9 7.5 8.1 6.1 7.3 12.6-1.9 17.1-7.1 3.5-14.8 4.8-22.8 5.1-21.1 0.8-41.9-2.3-62.5-6.5-44-8.9-87.9-18.5-130.6-32.3-20.1-6.4-39.4-14.6-57.9-24.7-28.9-15.7-49.7-38.8-63.1-68.8-11.1-25.1-19.1-50.8-17.1-78.6 1.2-17 3.4-34 7.4-50.7 10.2-43 24.8-84.7 40-126.2 20.9-56.9 39.5-114.5 59.2-171.8 20.6-60 41-120 60.7-180.2 9.6-29.2 19.6-58.1 31.3-86.4 4.3-10.6 9.3-20.9 15-30.7 3.6-6.2 7.6-12.1 12.7-17.2 14.9-15.1 34.1-17.8 52.7-7.5 14.9 8.3 24.9 21.1 33.7 35.1 5.3 8.4 5.2 7.9 15 6.5 22.3-3.3 44.7-3.6 67.1 0 1.7 0.3 3.4 1.2 5.7-0.6zm-27.4 774.2c0.2 0.2 0.4 0.6 0.7 0.7 1.3 0.6 2.6 1.1 3.9 1.5 41.3 10.5 83 12.9 125.1 5.1 7.7-1.4 14.6-4.1 22.1-9.1-8.3-2.5-15.9-3.1-22.7-6.2-3.8-1.7-7.4-3.6-7.6-8.1-0.1-4.3 3-7.2 6.6-9.1 3.4-1.7 7.1-3.2 10.9-4.1 4.8-1.3 9.8-2.1 14.7-2.7 14.7-1.9 29.5-3.5 44-5.2 0.9-3-0.8-4.6-1.8-6.4-12.1-21.7-20.3-44.8-22.8-69.6-2.1-20.9-0.1-41.4 9.4-60.5 12.9-26.3 37.4-39.5 66.6-36.5 24 2.6 43.8 14 61.7 29.4 1 0.9 2 2 2.8 3.2 1.1 1.6 1.3 3.2 0 4.9-1.4 1.6-3.3 1.9-4.8 1-2.5-1.4-4.6-3.2-6.8-5-13.8-11.2-28.8-19.7-46.3-23.6-29.5-6.6-55 6.5-67 34.3-6.2 14.4-8.5 29.5-7.5 44.9 1.9 27.5 10.4 53 24.5 76.7 2.7 4.7 5.8 6.5 11.2 5.4 7-1.4 14.1-2.2 21.1-3.1 2.8-0.3 5.1 0.8 5.5 3.8 0.3 2.5-1.6 3.8-3.7 4.5-1.4 0.4-2.8 0.9-4.2 1-13.1 1.7-26.1 3.6-39.2 4.9-17 1.8-34.1 2.8-50.9 6.3-4.1 0.8-8.2 1.3-12.3 4.9 4.2 2.5 7.8 3.4 11.6 4.1 8.5 1.4 17 2.1 25.6 1.3 3.7-0.3 8.6-1.3 9.9 3.7 1.4 5.2-3.4 6.3-6.9 7.7-6 2.5-12 4.7-17.9 7.3-1.9 0.8-5.1 0.8-5 4.3 2.2 1.9 4.8 1.5 7.1 1.5 7.5 0 15-0.3 22.5-0.4 3.7 0 7.6 0.5 8.3 4.9 0.7 3.9-2.7 5.5-5.7 6.7-8.3 3.3-16.7 6.2-25 9.4-3.6 1.3-7.6 1.8-10.5 5.7 4.6 3.4 9.7 4.5 14.8 5.3 7.1 1.2 14.2 1.6 21.4 1.4 17.8-0.3 35.6-1.4 53.3-3.5 32.8-3.9 64.3-12.2 93.4-28.5 14.9-8.3 26.1-19.9 32.5-35.6 16.7-40.9 22.5-83.1 13.5-126.7-7.3-35.5-21.3-68.6-37.9-100.7-17.9-34.5-36.2-68.7-49.2-105.5-12.4-35-25-69.8-26.7-107.4-0.1-0.9-0.7-1.2-2-0.8-2.9 1.8-4.1 5.2-6 8.2-1.3 1.9-2.8 3.5-5.2 2.4-3-1.3-2.6-4.1-1.5-6.4 1.5-3.1 3.4-6.3 5.6-9 11.7-14.3 19.3-30.8 26.3-47.6 6.3-15.2 10.4-31.2 9.6-47.8-1.6-35.5-13.8-66.7-38.4-92.8-15.7-16.6-31.5-33-48.7-48-34-29.6-66-61-93.5-96.8-7.4-9.6-15.6-18.6-24.3-27-5.7-5.5-11.9-10.2-18.8-14.1-14.1-8-23.8-1.9-31.2 10.1-4.9 8.1-4.2 17.1-2.7 26 1.8 10.5 4 21 5.5 31.6 1.4 10-0.4 11.7-10.1 9.4-9.8-2.2-19.8-3-29.7-3.4-14.3-0.5-28.5 0.3-42.5 3.3-6.2 1.4-6.4 2.1-3.9 8 2.9 6.9 6 13.7 9.1 20.5 1.5 3.1 4.8 6.7 0.1 9-4.1 2.1-6.2-2-8-5-0.9-1.5-1.6-3.2-2.3-4.8-4-9.2-7.7-18.4-11.9-27.5-7.8-16.7-17.9-31.7-33.9-41.7-17-10.8-33.6-8.2-46.7 7.1-5.2 6-9.2 12.7-12.8 19.7-12.3 23.4-21.7 48.1-30.1 73.1-17.6 52.3-34.6 104.9-52.4 157.1-30.4 88.6-59.9 177.6-91.6 265.7-13.6 37.9-25.6 76.3-32.3 116.2-4.7 28.1-2.1 55.1 7.6 82 14.3 39.5 39.2 68.7 77.7 86.5 21.5 9.9 43.6 17.6 66.1 24.3 34.6 10.2 69.8 17.6 105 24.9 20.3 4.1 40.6 7.7 61.5 7.1 7.3-0.3 14.6-1.1 21.1-5-1.3-3.8-4.2-4.7-6.7-5.9-5.1-2.3-10.4-4.5-15.8-6.3-10.1-3.4-20.4-6.5-30.5-9.8-2.9-0.9-5.4-2.5-4.7-6.1 0.7-3.2 3.4-3.3 5.9-3.3 3.6 0.1 7.1 0.4 10.7 0.5 10.7 0.5 21.4 1 32.1 1.3 4.1 0.1 8.5 0.4 12.7-2.5-4-3.3-8.6-4.3-12.9-5.6-11.3-3.3-22.6-6.2-33.9-9.6-3.2-1-7.9-1.4-7.3-6.3 0.6-5 5.1-3.8 8.5-3.7 9.3 0 18.5 0.1 27.8 0.2 8.4 0.1 16.7-0.8 25.9-3-6-5.2-12.6-5.8-18.6-7.4-15.1-4.2-30.7-6.2-46.2-8.7-9.6-1.5-10.7-4-5.9-12.7 1-1.8 2.2-3.6 3.2-5.5 9-17.2 15.4-35.2 16.4-54.9 1.9-39-22.5-67.1-61.5-70.8-24.5-2.3-47.3 3.9-69.4 13.9-2.6 1.2-5.1 2.5-7.8 3.3-1.8 0.6-3.7 0.1-4.7-1.6-1.3-2.2-0.4-4.2 1.4-5.7 1-0.9 2.3-1.6 3.6-2.2 22.7-11.3 46.5-18 72.1-16.9 50.1 2.2 80.4 38.2 74.5 87.9-2.1 17.2-7.5 33.2-15.4 48.6-1.3 2.6-4.4 5-2.3 9.1 6.8 1 13.8 2 20.8 3.2 14.8 2.5 29.5 5.2 43.4 11 10.1 4.2 11.1 6.8 7.6 16.7z"/>
			<path fill-rule="evenodd" class="s5" d="m166.9 530.6c-5.7-3.5-11.4-7.1-17.1-10.6-18.9-11.6-37.3-23.8-54.6-37.6-19.6-15.8-36.4-34.1-48.7-56.2-1.6-2.8-2.9-5.7-4.3-8.6-15.1-32.7-0.1-59.8 28.3-73.5 22.8-11 46.9-10.8 71.1-5.3 30.8 7.1 55.9 23.1 75 48.1 28.5 37.4 44.3 80.1 49.5 126.8 1.5 13.9 1.6 27.7-0.3 41.3 4.1 1.2 4.2-1.5 4.9-3.3 1.4-3.7 2.2-7.6 3.9-11.1 1.9-3.6 1-11.6 7.4-9.1 5.8 2.1 0.7 8-0.1 12.2-0.5 2.7-1.8 5.3-2.7 8-0.4 1-0.7 2.1 0.5 3.3 3.7-3.2 5.2-8 7.7-12.1 1.3-2.1 2.6-4.3 4.1-6.2 0.9-1.1 2.3-1.8 3.8-1 1.4 0.7 2.3 2 2 3.5-0.4 2-1 4.1-1.9 6-2 3.8-4 7.6-6.4 11.1-4.4 6.7-6 13.6-6.9 21.7-2.5 22.4-13.2 41.3-30.2 56.1-6.9 6-12.9 5-17.8-2.7-2.6-4.1-5.1-3.8-8.8-2.9-6.6 1.7-12.7 4.5-18.8 7.5-32.8 15.9-66.6 29.1-101.7 38.6-20.2 5.4-40.7 7.1-61.3 1.5-26-7-40.6-25.9-41.6-52.8-0.9-24.8 8.9-44.2 28.4-59.1 20.6-15.7 44.2-24.3 69.3-29.1 20.4-3.8 41-5.5 61.7-2.6 1.8 0.2 3.5 0 5.3 0q0.1-0.9 0.3-1.9zm76.4 46.9c12.1-10.5 16.8-23.1 15.8-38.3-0.6-9.3-0.4-18.5-1.7-27.8-6-43.1-20.4-82.9-46.8-117.9-18.2-24.2-42.3-39.8-72.1-46.4-22.2-5-44.1-5-64.7 5.2-24.6 12.2-36.2 34.1-24 61 5.1 11.1 11.7 21.2 19.2 30.7 16.6 21.1 37.4 37.2 59.5 51.8 20.2 13.3 41.2 25.5 61.4 38.9 18.9 12.6 38.3 24.8 53.4 42.8zm-172.2 93.1c6.6-0.4 14.5-0.6 22.1-2.4 37.3-8.7 72.6-22.7 107.2-39 4.5-2.1 8.9-5.5 13.5-6 15.5-1.7 19.4-12 22.6-24.9 1.8-7.5 0.8-13.1-3.4-18.9-2.7-3.8-6.1-7-9.8-9.8-7.6-5.8-15.4-11.5-23-17.4-4.3-3.4-9.1-5.2-14.3-6.7-33.3-9.3-66.3-7-99.2 1.6-19.8 5.2-38.3 13.4-54.2 26.6-17.4 14.3-24.4 33-21.5 55.1 2.3 18.5 12.4 31.4 30.4 37.6 9.2 3.2 18.7 4.2 29.6 4.2zm202.8-92.9c-0.2-4.5 0.5-8.6-3.3-10.5-4.2-2.2-7.5 0.6-10.2 3.5-2 2-3.7 4.3-5.4 6.6-8.5 11.4-11.6 25.1-15.4 38.4-1 3.3 0.1 6.3 1.1 9.4 1.4 3.6 3.8 4 6.5 1.5 14.7-13.5 23.2-30.3 26.7-48.9z"/>
			<path fill-rule="evenodd" class="s5" d="m836.6 166.7c5.2 1.9 9 0.6 12.9 0.3 25.7-1.6 47.9 6.5 68.2 22.6 14.9 11.7 13.8 38.8 2.9 50-10.4 10.5-23.5 14.3-37.3 16.9-21.6 4.1-42.5-0.8-63.3-5.5-10.1-2.2-20.1-5-30.1-7.2-4.1-1-8-2.2-10 4.1-1.5 5-6.7 5.7-11.7 4.6-4.7-1.1-8.6-3.5-12.1-6.6q-18.3-15.9-31.2-36.4c-1.3-2.1-2.7-4.4-3.1-6.7-1.1-6.8-4.2-11.9-10.3-15.2-1.2-0.6-2.1-1.9-3-3-1.3-1.5-1.7-3.1-0.3-4.8 1.3-1.6 3-1.4 4.8-0.6 3.5 1.5 5.7 5.3 10.5 5.4 0.9-4.8-2.5-8-4-11.7-1.1-2.6-3.5-5.5 0-7.5 4-2.2 5.7 1.4 7.2 4.1 2.4 4.3 4.5 8.7 7.1 13.8 3.5-3.7 2.7-7.4 2.8-10.7 0.6-17.8 1-35.7 1.5-53.5 0.6-21.4 3.4-42.5 9.1-63.3 3.9-14.2 10.4-27.2 19.7-38.7 10.7-13.3 24.4-17.8 41-13.6 20 5.1 35.3 16.6 45.2 34.8 15.2 28.2 17.8 57.4 6.4 87.6-5.4 14.4-13.1 27.6-22.9 40.8zm21.5-80.4c-1-16.4-5.9-34-16.5-49.8-8.5-12.6-20.7-20.2-35.2-24.4-13.6-3.8-24.5 0.1-33.1 11-8.1 10.2-13.9 21.5-17.4 34-5.9 20.7-8.8 41.8-9.1 63.2-0.3 17.8 0.9 35.8-1.9 53.3-2.3 13.7 2.4 22.8 11.8 31.6 7.5 7.1 7.1 7.7 16 3.2 30.1-15.2 53.3-37.7 69.9-66.9 9.3-16.3 15-33.8 15.5-55.2zm-89.2 133.1c5.1 5.3 5.4 12.6 13.4 14.1 13.6 2.5 27 6.2 40.5 9.3 18.8 4.2 37.6 8.4 57 5.4 9.2-1.5 18.1-3.7 26.3-8.2 18.4-10.1 18.1-34.9 3.8-45.6-20.6-15.4-42.8-21.4-68-18.8-9.5 1-17.3 3.8-24.2 11.3-10.9 11.7-24.8 20-39.1 27.4-2.8 1.5-5.6 2.9-9.7 5.1zm-40.9-25.2c7 19.1 19.9 32.1 33.3 44.6 2.8 2.6 5.9 6.2 11.3 3.7-7.8-18.6-22.2-31.7-34.5-46.2-1.8-2.2-4.8-2.6-10.1-2.1z"/>
			<path class="s5" d="m527.6 836c-33.2 0.5-62.1-11.7-88.4-30.6-18.9-13.5-36.4-28.8-49.1-48.7-0.9-1.5-2.1-2.8-2.8-4.4-0.8-1.8-0.2-3.6 1.3-4.8 1.6-1.3 3.5-1 5 0 3 2 4.6 5.4 6.7 8.2 26.4 33.8 59 58.7 101.4 68.7 14.3 3.4 29 3.7 43.6 1.6 15.5-2.2 21.1-13.5 13.7-27.2-4.5-8.3-11.2-14.8-18.4-20.6-10.9-8.7-22.1-16.9-33.2-25.3-20.7-15.8-41.4-31.6-59.8-50.1-10.3-10.5-19.1-22.1-24.4-36.1-1.4-3.7-4.6-8.9 1-10.9 4.4-1.5 4.8 4.3 6.1 7.3 5.2 12.7 13.2 23.6 23 33.2 18.3 18 38.7 33.6 59.1 49.2 11.7 8.8 23.4 17.5 34.8 26.6 7.6 6 14.3 13 19.2 21.5 11.1 19.5 2.5 37.4-19.7 41.2-6.4 1.1-12.8 1.2-19.1 1.2z"/>
			<path class="s5" d="m684.3 840.3c-8.6-0.3-17.1-1.4-24.4-6.6-8.5-6-11-13.3-7.9-23.3 1.4-4.4 3.5-8.6 6.4-12.2 11-13.6 21.7-27.4 34.3-39.6 28.6-27.7 51-59.4 62.4-98.1 0.2-0.7 0.4-1.4 0.6-2.1 0.9-2.6 2.6-4.4 5.6-3.5 3 0.9 3.1 3.6 2.6 6.1-0.9 3.8-2 7.6-3.3 11.3-11.4 33-30.5 61.1-54.9 85.7-13.3 13.4-26 27.4-37.6 42.4-1.7 2.2-3.6 4.4-5 6.9-6.5 11.1-3.3 19.1 9.2 22.5 10.3 2.8 20.6 1.6 30.7-0.9 37.5-9.1 67-30.7 92.1-59.1 8-9.1 15.3-18.8 20.9-29.6 0.8-1.6 1.8-3.1 3.1-4.3 0.6-0.6 1.9-0.8 2.9-0.6 1.6 0.2 2.2 1.6 2.4 3.1 0.3 2.6-0.8 4.8-2.1 7-29.1 48.1-68.6 82.4-125.2 93.6-2.5 0.5-5 0.8-7.4 1.1-1.8 0.2-3.6 0.2-5.4 0.2z"/>
			<path class="s5" d="m702.6 333.9c-0.2-7.1 0.5-12.3 5.8-14.6 5-2.2 9.8-0.4 13.7 3.2 12.9 11.8 20.1 26.5 22.1 43.7 0.5 4.9-0.7 10.1-6 12.7-4.8 2.3-9.2 0.4-12.8-2.7-13.7-11.5-20.4-26.8-22.8-42.3z"/>
			<path class="s5" d="m488 441.2c0 1.1 0.1 2.1 0 3.2-0.2 5.3-1.9 10.1-7 12.2-5.6 2.3-10.8-0.1-14.3-4.5-11.1-14.2-16.1-30.6-14.6-48.7 0.4-4.3 2.5-8.4 7.1-9.8 5-1.5 9.2 0.6 12.2 4.5 9.5 12.8 15.1 27.2 16.6 43.1z"/>
			<path class="s5" d="m623.9 435.5c-3 2.3-2.9 5.8-4.1 8.7-9.3 21.8-32.6 30.8-54 20.7-3.6-1.6-7-3.5-10.4-5.4-2.3-1.4-4-3.4-2.7-6.2 1.3-3 4.1-2.6 6.4-1.6 3.3 1.3 6.3 3.2 9.5 4.7 19.1 9.2 38.7 0.2 44.4-20.3 0.7-2.8 0.9-5.7 1.8-8.3 1.7-5.4 5-6.7 9.8-3.7 5.1 3.3 9.7 7.2 14.7 10.6 8.6 5.9 18.1 8.3 28.4 5.8 7.4-1.8 13.8-5.5 18-12.2 1.4-2.3 3.6-4 6.2-2.3 2.7 1.7 1.5 4.3 0.3 6.7-1.8 3.5-4.4 6.4-7.6 8.7-13.3 9.6-27.6 10.9-42.4 4.6-6.4-2.7-12.3-6.9-18.3-10.5z"/>
		</g>
	</g>
</svg>