<?xml version="1.0" encoding="utf-8"?>
<!-- Generator: Adobe Illustrator 23.0.3, SVG Export Plug-In . SVG Version: 6.00 Build 0)  -->
<svg version="1.1" id="Layer_1" xmlns="http://www.w3.org/2000/svg" xmlns:xlink="http://www.w3.org/1999/xlink" x="0px" y="0px"
	 viewBox="0 0 1200 1200" enable-background="new 0 0 1200 1200" xml:space="preserve">
<g>
	<g>
		<path fill="#A7B1D6" d="M1114.48,950.265c-1.442,28.643-11.344,56.259-25.163,82.703c-21.052,40.284-54.502,66.241-96.122,82.344
			c-36.548,14.141-74.841,17.672-113.728,17.909c-35.523,0.216-70.932-1.655-106.093-6.03c-29.145-3.626-57.943-1.669-86.968,0.201
			c-28.55,1.84-56.86,6.439-85.501,6.951c-10.795,0.193-21.458,1.494-31.703-4.735c-4.717-2.869-11.539-0.771-17.433-0.212
			c-7.509,0.711-15.361,3.107-21.262-4.687c-2.302-3.041-6.021-0.916-8.99-0.4c-18.759,3.26-37.455,6.885-56.231,10.037
			c-45.655,7.666-91.998,10.519-136.798-0.946c-70.005-17.916-134.376-47.731-182.733-104.602
			c-24.456-28.762-42.582-61.092-55.061-96.546c-4.662-13.246-7.664-27.086-11.185-40.718c-0.895-3.466-2.474-8.106-1.007-10.6
			c6.762-11.491,4.304-23.862,4.138-35.799c-0.54-38.737,9.461-75.441,19.054-112.488c14.356-55.443,32.949-109.604,48.049-164.794
			c5.991-21.899,13.347-43.897,15.36-66.275c1.939-21.556,3.125-43.366,5.009-64.982c5.092-58.42-5.681-114.949-17.988-171.43
			c-4.164-19.11-6.974-38.319-6.718-58.056c0.27-20.869,4.682-40.509,13.174-59.408c1.469-3.269,5.16-6.971,3.582-9.916
			c-5.355-9.994,2.154-14.941,6.902-21.258c13.612-18.109,31.429-31.341,49.891-43.956c4.862-3.323,10.327-3.06,15.455-4.643
			c47.965-14.808,95.928-11.467,144.019-0.447c33.667,7.715,67.492,14.7,101.978,17.845c20.437,1.864,40.805,1.645,61.177-1.028
			c23.403-3.071,46.847-5.834,70.269-8.765c2.68-0.336,6.652,0.064,7.78-1.498c6.569-9.096,16.191-6.922,24.964-7.432
			c39.479-2.292,78.982-3.564,118.463-0.131c35.908,3.123,71.144,9.551,104.856,22.784c17.072,6.701,32.694,15.75,45.653,29.029
			c8.683,8.897,14.446,19.443,20.284,30.378c16.418,30.75,15.453,63.768,15.005,96.864c-0.164,12.138-1.974,24.302,4.379,35.751
			c1.654,2.98,1.436,7.071,1.807,10.679c5.744,55.843,20.524,109.751,35.178,163.671c2.376,8.741,5.365,17.428,9.119,25.663
			c18.135,39.79,31.228,81.432,45.415,122.663c10.5,30.518,23.232,60.235,33.618,90.723
			c20.835,61.164,37.601,123.381,38.313,188.779C1116.924,905.285,1117.451,927.084,1114.48,950.265z M379.882,154.584
			c0.28-1.897-0.921-2.482-2.455-2.77c-1.326-0.521-2.653-1.042-3.979-1.564c-11.248-14.31-29.275-13.591-42.971,1.713l0.321-0.14
			c-0.99,0.725-1.981,1.45-2.971,2.175c-0.571,0.007-0.91,0.291-1.017,0.852l-0.715,1.053c-3.357,1.011-4.849,3.94-6.647,6.524
			c-12.492,17.956-22.765,37.088-30.426,57.598c-4.901,11.107-10.164,22.06-13.408,33.837
			c-8.746,31.752-17.676,63.453-26.336,95.228c-2.952,10.831-7.639,21.231-8.359,32.636c-2.152,4.862-0.825,8.419,4,10.664
			c22.379,25.452,46.939,48.528,74.496,68.337l-0.06,0.029c1.397,0.803,2.794,1.607,4.191,2.41c1.214,4.308,5.037,6.188,8.134,8.744
			c20.878,17.23,42.12,33.999,64.281,49.551c19.189,13.465,38.598,26.615,57.91,39.903c5.32,3.873,9.162,9.434,15.425,12.354
			c5.494,2.561,7.041,7.62,5.376,13.506c-1.718,1.798-3.435,3.595-5.153,5.392c-9.678,7.692-6.15,18.544-6.796,28.397
			c-0.417,7.836,1.294,15.236,3.717,22.686c4.134,12.713,10.807,23.942,18.383,34.783c12.728,18.215,22.791,38.436,38.135,54.632
			c12.849,13.563,24.6,27.938,36.342,42.383c6.98,8.586,7.003,8.567,16.908,1.406c13.366-4.71,24.827-13.039,36.38-20.72
			c23.994-15.952,39.684-37.614,40.679-67.818c0.147-4.45,1.084-9.054,2.61-13.239c2.508-6.879,3.908-13.929,4.858-21.11
			c3.149-23.786,7.347-47.385,12.537-70.808c1.519-4.767,3.038-9.535,4.557-14.302c0.381-0.382,0.664-0.826,0.849-1.333
			c7.063-7.206,11.552-16.062,15.991-24.95l-0.053-0.037c7.334-1.706,11.457-8.309,17.879-11.592
			c16.853-8.616,33.603-17.477,50.011-26.908c18.349-10.547,37.245-20.339,53.264-34.516c10.369-6.102,18.667-14.84,28.082-22.16
			c2.987-2.322,7.298-3.782,7.46-8.648l-0.065-0.037c20.318-12.138,33.894-30.372,45.247-50.499
			c2.249-3.987,1.573-8.763,1.231-13.311c-1.222-16.253-4.168-32.202-8.121-47.987c-0.272-8.789-2.631-17.03-6.52-24.871
			c-0.668-3.532-1.125-7.12-2.035-10.588c-9.424-35.885-23.854-70.048-36.015-104.996c-9.321-26.784-26.608-45.616-52.096-57.359
			c-24.436-7.88-37.267-2.273-47.987,21.016c-6.898,14.986-8.566,31.356-12.382,47.157c-0.797,3.302,0.898,6.179,1.846,9.171
			c-0.09,1.948-0.18,3.895-0.27,5.843c-3.22,4.363-7.689,4.595-12.269,3.241c-15.843-4.683-32.243-5.337-48.506-7.006
			c-32.734-4.412-65.486-8.399-98.592-4.32c-19.389,0.889-38.681,2.618-57.849,5.821c-28.414,4.749-57.338,7.109-84.222,18.752
			c-4.564,1.976-8.967,0.794-12.742-2.104c-2.84-2.18-5.304-4.849-7.936-7.3c-0.164-5.551-2.425-10.431-4.879-15.249
			c-2.335-15.01-9.21-28.101-17.285-40.665c-1.186-1.845-2.548-3.782-5.31-3.156l0.189,0.271c0.743-2.399-0.334-3.326-2.638-3.26
			l0.202,0.264c0.558-2.246-0.801-2.945-2.633-3.26L379.882,154.584z"/>
		<path fill="#4D8A61" d="M373.448,150.25c1.326,0.521,2.653,1.042,3.982,1.563c0.819,0.923,1.636,1.847,2.453,2.771
			c0,0-0.209-0.251-0.208-0.252c0.878,1.087,1.755,2.173,2.633,3.26c0,0-0.202-0.264-0.202-0.264
			c0.879,1.087,1.758,2.173,2.637,3.26c0,0-0.189-0.271-0.188-0.271c7.532,14.607,15.063,29.214,22.595,43.821
			c2.453,4.818,4.714,9.698,4.873,15.246c0.539,2.195,0.938,4.442,1.652,6.583c4.223,12.65,3.62,11.398,14.807,7.756
			c27.66-9.004,55.988-15.192,84.826-18.927c18.878-2.445,37.81-4.473,56.708-6.763c2.229-0.27,6.081,1.058,4.761-3.815
			c33.106-4.078,65.858-0.092,98.595,4.32c17.794,4.498,35.568,9.06,53.38,13.472c10.474,2.594,10.651,2.29,7.391-9.707
			c0.09-1.948,0.18-3.895,0.268-5.849c3.032-2.736,2.82-6.53,3.062-10.056c0.621-9.052,2.795-17.76,5.106-26.488
			c3.189-12.044,9.587-22.353,17.059-32.004c8.721-11.263,20.865-10.888,33.298-8.789c25.488,11.743,42.775,30.575,52.096,57.359
			c12.161,34.947,26.592,69.11,36.015,104.996c0.911,3.469,1.368,7.056,2.031,10.587c-1.529,8.263,0.933,15.965,3.333,23.676
			c2.099,17.48,4.196,34.961,6.298,52.441c0.909,7.557-1.126,13.119-6.914,19.147c-12.418,12.936-23.137,27.504-34.551,41.403
			c0,0,0.065,0.037,0.065,0.037c-11.684,8.853-23.368,17.707-35.051,26.56c-10.122,5.971-21.542,10.549-29.931,18.377
			c-6.133,5.723-12.226,10.418-19.666,13.67c-11.619,5.078-23.289,10.046-35.011,14.881c-15.444,6.37-27.84,16.379-37.036,30.336
			l0.053,0.037c-10.646,4.91-12.62,15.378-15.991,24.95c-0.185,0.506-0.468,0.951-0.843,1.32c-3.667,4.019-7.125,8.18-8.277,13.73
			c-5.8,5.87-6.955,13.311-7.622,21.125c-1.422,16.671-2.915,33.347-4.951,49.95c-2.358,19.226-4.53,38.504-12.667,56.525
			c-7.386,16.358-17.02,30.829-31.67,41.553c-7.002,5.126-15.258,7.801-22.902,11.67c-5.806,2.939-13.16,4.842-13.536,13.455
			c-9.905,7.161-9.929,7.18-16.908-1.406c-11.742-14.445-23.492-28.82-36.342-42.383c-15.345-16.196-25.407-36.417-38.135-54.632
			c-7.576-10.842-14.249-22.07-18.383-34.783c-2.423-7.45-4.134-14.85-3.714-22.661c-0.009-10,5.103-18.803,6.793-28.423
			c1.718-1.798,3.435-3.595,5.138-5.37c1.596-0.668,3.145-1.636,4.826-2.002c6.491-1.412,5.443-5.051,2.217-8.517
			c-2.036-2.186-5.015-3.582-7.733-5.028c-6.649-3.539-13.392-6.902-20.097-10.336c-19.312-13.289-38.722-26.438-57.91-39.903
			c-22.162-15.552-43.404-32.321-64.281-49.551c-3.097-2.556-6.92-4.437-8.128-8.741c-1.395-0.802-2.796-1.608-4.197-2.414
			c0,0,0.06-0.029,0.059-0.029c-0.413-5.586-4.405-8.543-8.292-11.77c-20.192-16.764-39.757-34.23-58.349-52.768
			c-2.152-2.145-3.841-5.424-7.854-3.799c-4.825-2.245-6.152-5.802-4.001-10.658c9.56-21.192,16.222-43.437,21.513-65.932
			c7.598-32.306,19.972-63.235,26.592-95.774c7.66-20.51,17.933-39.642,30.426-57.598c1.798-2.584,3.29-5.514,6.643-6.523
			c-0.004,0.002,0.023-0.766,0.023-0.766l0.696-0.288c0.107-0.561,0.446-0.845,1.017-0.85c0.99-0.724,1.981-1.451,2.972-2.177
			c0,0-0.321,0.14-0.321,0.14c4.307-0.489,8.884,2.027,12.948-1.044C353.287,143.466,363.318,144.967,373.448,150.25z"/>
		<path fill="#390F07" d="M723.394,672.956c4.975-2.956,8.201-0.02,11.326,2.503c52.391,42.296,89.324,93.89,96.621,162.837
			c6.685,63.16-11.783,118.289-54.251,165.437c-1.213,1.346-2.364,2.817-3.807,3.868c-1.967,1.432-4.233,1.789-6.046-0.315
			c-1.518-1.763-0.34-3.37,0.787-4.781c5.945-7.445,12.27-14.612,17.843-22.324c45.799-63.371,50.754-131.425,21.169-202.387
			c-16.402-39.341-43.948-70.673-76.99-97.268C727.691,678.63,724.168,677.814,723.394,672.956z"/>
		<path fill="#390F07" d="M253.764,547.997c4.004,3.384,2.736,6.716,2.408,9.72c-4.453,40.731,6.031,78.376,24.186,114.216
			c14.821,29.259,34.305,55.625,53.241,82.263c10.354,14.565,18.356,30.233,24.832,46.774c1.143,2.918,2.891,5.806,2.29,9.095
			c-0.204,1.119-1.245,2.599-2.227,2.918c-0.994,0.324-3.019-0.215-3.492-1.021c-1.589-2.705-2.823-5.647-3.949-8.592
			c-6.69-17.493-15.731-33.623-26.736-48.811c-14.919-20.588-29.317-41.565-42.34-63.429c-17.642-29.62-29.321-61.345-32.986-95.777
			c-1.251-11.753-0.936-23.571-0.206-35.343C249.049,555.731,248.376,550.684,253.764,547.997z"/>
		<path fill="#390F07" d="M825.812,548.37c-2.405-0.127-3.179-2.158-2.279-3.653c1.599-2.655,3.864-4.956,6.067-7.193
			c38.015-38.623,72.308-80.055,97.58-128.38c1.676-3.205,2.797-9.951,7.663-7.359c5.458,2.908,0.481,7.927-1.313,11.552
			c-18.262,36.915-43.779,68.733-70.655,99.532c-9.534,10.926-19.226,21.763-30.243,31.283
			C830.617,545.893,828.953,548.241,825.812,548.37z"/>
		<path fill="#390F07" d="M789.612,1136.132c-49.143-8.369-106.175-4.64-163.317,0.697c-29.842,2.787-59.842,2.191-89.661-1.973
			c-8.166-1.14-16.355,0.052-24.413,1.28c-14.81,2.257-29.662,4.457-44.291,7.629c-35.515,7.701-71.339,7.196-107.16,4.202
			c-42.161-3.524-82.082-15.911-119.547-35.174c-29.521-15.179-57.341-33.238-81.746-56.181
			c-56.595-53.205-85.628-118.339-86.795-196.151c-0.759-50.597,9.666-99.23,23.076-147.567
			c12.638-45.55,28.932-89.944,42.148-135.28c10.292-35.305,19.455-70.983,25.876-107.261c5.592-31.596,4.569-63.36,1.738-95.114
			c-4.036-45.276-10.154-90.209-21.033-134.454c-10.602-43.122-3.854-84.527,18.234-122.343
			c25.5-43.659,65.345-65.407,115.779-68.178c33.154-1.822,65.009,6.181,97.138,12.145c29.921,5.555,59.464,13.048,89.794,16.518
			c37.822,4.328,75.317,2.357,112.556-4.9c83.298-16.232,166.896-18.996,250.754-5.322c26.244,4.279,50.675,14.008,72.875,29.036
			c24.387,16.508,40.316,38.951,48.102,67.245c4.961,18.03,8.291,36.311,7.691,55.123c-0.641,20.093,3.956,39.74,4.992,59.703
			c2.965,57.081,16.356,112.286,31.983,166.879c17.511,61.174,39.282,120.988,61.94,180.43c9.219,24.184,20.478,47.585,29.94,71.683
			c28.911,73.635,44.929,150.125,40.303,229.179c-7.184,122.768-90.471,203.71-206.561,212.177
			C879.076,1143.146,838.283,1141.393,789.612,1136.132z M950.917,288.224c-3.803,2.051-3.79,5.016-4.543,7.541
			c-28.843,96.547-89.47,165.895-179.632,209.982c-14.697,7.187-29.441,14.281-44.079,21.585
			c-23.571,11.761-39.665,29.928-47.029,55.474c-5.815,20.174-9.156,40.757-10.28,61.709c-1.175,21.926-6.132,43.023-12.467,64.023
			c-7.995,26.5-24.873,44.868-48.461,58.022c-8.729,4.868-17.523,9.662-25.935,15.042c-12.906,8.254-22.88,19.256-29.223,33.376
			c-5.094,11.339-7.38,23.377-8.767,35.589c-4.312,37.979-5.451,76.109-5.527,114.31c-0.097,48.635,4.222,97.124,4.416,145.745
			c0.048,12.194,1.827,14.533,13.86,14.996c23.141,0.891,46.363,2.833,69.457,0.211c63.511-7.211,126.844-7.43,190.345,0.929
			c38.814,5.109,78.022,5.684,116.982,0.923c68.163-8.329,122.006-39.808,156.687-100.41
			c21.781-38.061,30.312-79.633,29.358-123.147c-1.581-72.063-14.834-142.027-43.473-208.227
			c-25.661-59.318-47.456-119.972-68.544-180.956C978.605,441.331,959.101,366.331,950.917,288.224z M172.141,315.864
			c-0.616,0.186-1.233,0.372-1.849,0.558c1.114,9.268,2.251,18.533,3.337,27.804c4.977,42.51,8.56,85.05,1.217,127.659
			c-6.568,38.11-16.278,75.527-27.207,112.542c-13.246,44.859-29.239,88.876-41.698,134.01
			c-12.741,46.156-22.803,92.564-22.134,140.879c0.95,68.61,24.001,128.384,71.835,177.454
			c47.495,48.721,105.264,80.328,171.897,94.486c44.391,9.432,89.234,10.35,134.075,2.052c15.627-2.892,31.274-5.722,46.982-8.127
			c21.2-3.246,21.229-3.058,20.416-24.778c-0.017-0.454-0.117-0.904-0.129-1.357c-1.106-43.597-5.359-87.063-5.159-130.722
			c0.204-44.566,0.947-89.076,7.922-133.226c2.834-17.938,9.585-34.187,22.275-47.358c4.691-4.868,5.806-8.582,0.649-13.417
			c-1.978-1.854-3.574-4.115-5.34-6.195c-22.661-26.687-45.162-53.499-66.179-81.526c-11.288-15.055-20.812-30.849-24.602-49.638
			c-3.471-17.212-1.62-33.421,7.815-48.471c4.862-7.756,4.99-7.885-2.692-13.307c-11.136-7.859-22.458-15.452-33.664-23.213
			c-45.223-31.322-90.072-63.108-130.494-100.678c-18.976-17.637-38.403-34.79-57.649-52.135
			c-16.939-15.266-32.474-31.782-45.699-50.426C188.226,337.682,180.124,326.815,172.141,315.864z M654.851,631.346
			c2.215-13.557,3.876-25.219,6.045-36.794c7.061-37.698,27.603-64.302,62.472-80.417c20.604-9.522,41.023-19.564,60.913-30.486
			c40.008-21.969,72.947-52.285,100.875-88.21c3.41-4.386,5.901-8.699,5.12-14.843c-7.179-56.475-19.302-111.851-37.335-165.835
			c-6.788-20.321-16.667-39.329-30.347-56.063c-8.43-10.312-18.248-19.038-30.715-24.238c-13.56-5.655-24.945-2.533-33.682,9.114
			c-5.505,7.339-9.526,15.487-12,24.307c-5.926,21.121-8.743,42.688-8.794,64.617c-0.01,4.322,2.335,10.688-3.743,11.393
			c-7.75,0.899-6.089-6.498-5.992-10.933c0.159-7.273-2.998-10.695-9.869-12.207c-8.422-1.853-16.713-4.119-25.344-5.121
			c-46.588-5.406-93.272-6.896-140.092-4.094c-38.7,2.316-76.731,8.213-113.258,21.724c-10.182,3.766-13.239,2.672-10.01,16.232
			c1.027,4.311,3.832,11.6-3.165,12.572c-6.64,0.922-5.968-6.744-6.845-11.227c-4.485-22.929-12.133-44.676-23.582-65.044
			c-5.13-9.126-10.742-17.98-18.243-25.386c-14.13-13.952-28.267-14.721-43.698-2.392c-10.809,8.636-19.021,19.511-25.639,31.527
			c-9.441,17.142-17.011,35.137-23.058,53.748c-14.602,44.937-25.2,91.01-38.688,136.262c-1.562,5.242-0.006,8.338,3.801,11.732
			c24.414,21.768,48.576,43.819,72.967,65.612c48.601,43.425,103.81,77.941,156.472,115.892c3.564,2.569,7.173,3.183,11.445,3.149
			c12.78-0.102,25.274,1.986,37.673,5.202c29.548,7.664,57.964,18.343,85.605,31.188
			C627.247,618.417,640.329,624.559,654.851,631.346z M727.887,212.755c0.823-7.631,1.297-13.885,2.203-20.076
			c2.439-16.673,5.488-33.223,13.985-48.114c14.61-25.605,36.755-31.105,62.101-15.505c14.621,8.999,25.793,21.426,34.939,35.773
			c13.543,21.243,23.23,44.207,29.86,68.452c11.503,42.061,22.476,84.246,27.813,127.659c0.308,2.5,0.191,5.37,2.801,7.171
			c4.245-2.519,5.451-7.173,7.588-11.048c8.575-15.549,15.225-31.976,21.239-48.647c14.772-40.951,19.843-82.843,11.966-125.978
			c-6.694-36.658-25.636-64.498-58.614-82.504c-18.931-10.336-39.045-17.522-60.223-20.859
			c-80.248-12.644-160.249-9.648-239.885,5.468c-35.437,6.726-71.003,9.613-107.045,6.684
			c-38.191-3.104-75.203-12.681-112.702-19.615c-25.421-4.701-50.697-10.298-76.842-10.249
			c-79.705,0.148-130.108,55.786-135.61,133.073c-2.418,33.969,6.721,66.79,21.542,97.494c13.531,28.034,32.883,52.21,53.03,75.714
			c2.29,2.671,4.331,5.935,8.676,6.701c3.093-3.413,3.811-7.916,4.994-12.226c9.016-32.842,18-65.692,27.086-98.514
			c7.41-26.769,16.851-52.774,29.996-77.314c7.794-14.55,17.492-27.661,30.609-37.905c18.774-14.662,39.363-13.596,56.691,2.756
			c5.659,5.34,10.25,11.553,14.434,18.066c9.383,14.602,16.581,30.239,22.171,46.661c3.597,10.568,3.767,10.62,13.933,6.871
			c21.374-7.883,43.348-13.565,65.826-16.98c55.536-8.437,111.295-8.725,167.147-3.633
			C687.429,203.938,707.127,206.634,727.887,212.755z M568.651,773.822c13.76-8.037,26.802-15.337,39.52-23.163
			c16.115-9.915,26.774-24.191,32.745-42.176c5.746-17.307,10.599-34.752,12.045-53.04c1.094-13.83,1.619-11.975-9.488-17.575
			c-23.14-11.665-46.809-22.185-71.125-31.075c-22.173-8.106-44.588-15.701-68.129-19.024c-26.492-3.739-33.81,8.109-36.005,32.146
			c-0.484,5.299,0.806,10.847,1.816,16.179c2.589,13.677,9.01,25.678,17.148,36.773c7.529,10.264,15.052,20.555,23.096,30.412
			C529.493,726.831,549.016,750.135,568.651,773.822z"/>
		<path fill="#390F07" d="M367.958,381.534c-2.312,9.564-3.404,19.074-7.027,28.004c-1.554,3.83-3.236,7.517-5.963,10.608
			c-9.197,10.426-19.788,8.976-25.971-3.417c-3.563-7.14-3.939-14.921-4.262-22.573c-0.595-14.101,1.019-28.116,3.373-42.002
			c0.671-3.958,2.346-7.788,3.869-11.552c2.973-7.345,8.154-12.141,16.452-11.965c8.407,0.179,13.065,5.834,15.952,12.868
			C369.728,354.529,368.348,368.242,367.958,381.534z"/>
		<path fill="#390F07" d="M794.512,384.383c-1.121,9.827-1.51,17.139-5.888,23.397c-7.354,10.512-18.098,10.6-25.225,0.01
			c-1.999-2.97-4.037-6.224-4.841-9.635c-4.084-17.316-5.838-34.882-3.612-52.631c0.791-6.312,2.65-12.465,6.253-17.83
			c5.947-8.856,14.014-9.623,21.677-2.208c4.419,4.275,6.478,9.765,7.768,15.602C793.991,356.224,795.585,371.501,794.512,384.383z"
			/>
		<path fill="#390F07" d="M562.773,417.04c-4.304,4.245-7.527,7.377-10.698,10.56c-23.232,23.327-59.282,20.287-82.263-4.692
			c-0.918-0.997-1.9-1.994-2.56-3.157c-1.423-2.509-2.066-5.207,0.456-7.391c2.451-2.123,5.139-1.315,7.453,0.327
			c1.834,1.301,3.35,3.044,5.057,4.533c25.327,22.097,51.08,19.883,71.706-6.155c11.664-14.724,11.906-14.716,22.071,0.761
			c13.104,19.952,38.692,28.513,61.049,20.188c12.174-4.533,20.51-13.016,24.699-25.442c1.25-3.707,3.192-7.083,7.804-4.824
			c3.71,1.816,2.554,5.197,1.554,8.352c-5.89,18.584-18.847,30.056-37.392,33.966c-24.872,5.244-46.762-0.917-63.706-20.949
			C566.577,421.431,565.123,419.769,562.773,417.04z"/>
	</g>
</g>
</svg>
